<svg xmlns="http://www.w3.org/2000/svg" viewBox="0 0 100 100">
  <!-- Fundo circular gradiente -->
  <defs>
    <linearGradient id="bgGrad" x1="0%" y1="0%" x2="100%" y2="100%">
      <stop offset="0%" style="stop-color:#ff6b35;stop-opacity:1" />
      <stop offset="100%" style="stop-color:#f7931e;stop-opacity:1" />
    </linearGradient>
    <linearGradient id="carGrad" x1="0%" y1="0%" x2="100%" y2="100%">
      <stop offset="0%" style="stop-color:#ffffff;stop-opacity:1" />
      <stop offset="100%" style="stop-color:#e0e0e0;stop-opacity:1" />
    </linearGradient>
  </defs>
  
  <!-- Fundo -->
  <circle cx="50" cy="50" r="48" fill="url(#bgGrad)"/>
  
  <!-- Corpo do carro -->
  <path d="M 25 55 L 30 45 L 35 40 L 65 40 L 70 45 L 75 55 L 75 65 L 25 65 Z" fill="url(#carGrad)" stroke="#333" stroke-width="1.5"/>
  
  <!-- Teto do carro -->
  <path d="M 35 40 L 38 32 L 62 32 L 65 40 Z" fill="url(#carGrad)" stroke="#333" stroke-width="1.5"/>
  
  <!-- Janelas -->
  <path d="M 37 39 L 39 33 L 48 33 L 48 39 Z" fill="#4a9eff" opacity="0.7"/>
  <path d="M 52 39 L 52 33 L 61 33 L 63 39 Z" fill="#4a9eff" opacity="0.7"/>
  
  <!-- Faróis -->
  <circle cx="28" cy="55" r="2.5" fill="#ffd700"/>
  <circle cx="72" cy="55" r="2.5" fill="#ffd700"/>
  
  <!-- Rodas -->
  <circle cx="33" cy="67" r="6" fill="#333"/>
  <circle cx="33" cy="67" r="3" fill="#666"/>
  <circle cx="67" cy="67" r="6" fill="#333"/>
  <circle cx="67" cy="67" r="3" fill="#666"/>
  
  <!-- Detalhes cromados -->
  <rect x="48" y="55" width="4" height="8" fill="#999" rx="1"/>
  
  <!-- Estrela da sorte -->
  <path d="M 50 18 L 52 24 L 58 24 L 53 28 L 55 34 L 50 30 L 45 34 L 47 28 L 42 24 L 48 24 Z" fill="#ffd700" stroke="#ff6b35" stroke-width="1"/>
</svg>